<mxfile modified="2021-02-16T15:21:28.443Z" host="app.diagrams.net" agent="5.0 (Windows NT 10.0; Win64; x64) AppleWebKit/537.36 (KHTML, like Gecko) Chrome/88.0.4324.104 Safari/537.36" etag="6eyZCMTz9GxFGNIkGQKd" version="14.3.2" type="github">
  <diagram id="Ht1M8jgEwFfnCIfOTk4-" name="Page-1">
    <mxGraphModel dx="4708" dy="1175" grid="1" gridSize="10" guides="1" tooltips="1" connect="1" arrows="1" fold="1" page="1" pageScale="1" pageWidth="1169" pageHeight="827" math="0" shadow="0">
      <root>
        <mxCell id="0" />
        <mxCell id="1" parent="0" />
        <mxCell id="PIJa-xAXMbUZL5U9VrCR-40" value="" style="rounded=1;whiteSpace=wrap;html=1;strokeColor=#6c8ebf;align=left;strokeWidth=2;fillColor=#66B2FF;glass=0;shadow=0;sketch=0;" vertex="1" parent="1">
          <mxGeometry x="-1710" y="100" width="790" height="950" as="geometry" />
        </mxCell>
        <mxCell id="PIJa-xAXMbUZL5U9VrCR-1" value="" style="rounded=1;whiteSpace=wrap;html=1;fillColor=#dae8fc;strokeColor=#6c8ebf;align=left;strokeWidth=2;" vertex="1" parent="1">
          <mxGeometry x="-860" y="180" width="840" height="640" as="geometry" />
        </mxCell>
        <mxCell id="PIJa-xAXMbUZL5U9VrCR-4" value="&lt;font style=&quot;font-size: 40px&quot;&gt;FGO&lt;/font&gt;" style="rounded=1;whiteSpace=wrap;html=1;" vertex="1" parent="1">
          <mxGeometry x="-1169" y="438.75" width="177" height="162.5" as="geometry" />
        </mxCell>
        <mxCell id="PIJa-xAXMbUZL5U9VrCR-5" value="&lt;font style=&quot;font-size: 40px&quot;&gt;RPE&lt;br&gt;&lt;/font&gt;" style="rounded=1;whiteSpace=wrap;html=1;" vertex="1" parent="1">
          <mxGeometry x="-420" y="260" width="210" height="120" as="geometry" />
        </mxCell>
        <mxCell id="PIJa-xAXMbUZL5U9VrCR-6" value="&lt;font style=&quot;font-size: 30px&quot;&gt;MyOffer&lt;/font&gt;" style="rounded=1;whiteSpace=wrap;html=1;" vertex="1" parent="1">
          <mxGeometry x="-420" y="460" width="210" height="120" as="geometry" />
        </mxCell>
        <mxCell id="PIJa-xAXMbUZL5U9VrCR-7" value="&lt;font&gt;&lt;span style=&quot;font-size: 25px&quot;&gt;BDD&lt;/span&gt;&lt;br&gt;&lt;font style=&quot;font-size: 15px&quot;&gt;Docker MySQL&lt;/font&gt;&lt;br&gt;&lt;/font&gt;" style="shape=cylinder3;whiteSpace=wrap;html=1;boundedLbl=1;backgroundOutline=1;size=15;" vertex="1" parent="1">
          <mxGeometry x="-150" y="640" width="90" height="140" as="geometry" />
        </mxCell>
        <mxCell id="PIJa-xAXMbUZL5U9VrCR-8" value="&lt;font&gt;&lt;span style=&quot;font-size: 25px&quot;&gt;BDD&lt;/span&gt;&lt;br&gt;&lt;font style=&quot;font-size: 15px&quot;&gt;postgres&lt;/font&gt;&lt;br&gt;&lt;/font&gt;" style="shape=cylinder3;whiteSpace=wrap;html=1;boundedLbl=1;backgroundOutline=1;size=15;" vertex="1" parent="1">
          <mxGeometry x="-150" y="250" width="90" height="140" as="geometry" />
        </mxCell>
        <mxCell id="PIJa-xAXMbUZL5U9VrCR-9" value="" style="verticalLabelPosition=bottom;html=1;verticalAlign=top;align=center;strokeColor=none;fillColor=#00BEF2;shape=mxgraph.azure.azure_website;pointerEvents=1;" vertex="1" parent="1">
          <mxGeometry x="-410" y="270" width="40" height="40" as="geometry" />
        </mxCell>
        <mxCell id="PIJa-xAXMbUZL5U9VrCR-10" value="&lt;b&gt;&lt;font style=&quot;font-size: 30px&quot;&gt;AZURE&lt;/font&gt;&lt;/b&gt;" style="text;html=1;fillColor=none;align=center;verticalAlign=middle;whiteSpace=wrap;rounded=1;strokeColor=#000000;glass=0;" vertex="1" parent="1">
          <mxGeometry x="-510" y="190" width="140" height="40" as="geometry" />
        </mxCell>
        <mxCell id="PIJa-xAXMbUZL5U9VrCR-12" value="" style="endArrow=classic;startArrow=classic;html=1;" edge="1" parent="1" source="PIJa-xAXMbUZL5U9VrCR-5" target="PIJa-xAXMbUZL5U9VrCR-8">
          <mxGeometry width="50" height="50" relative="1" as="geometry">
            <mxPoint x="-574" y="430" as="sourcePoint" />
            <mxPoint x="-410" y="330" as="targetPoint" />
          </mxGeometry>
        </mxCell>
        <mxCell id="PIJa-xAXMbUZL5U9VrCR-13" value="" style="endArrow=classic;startArrow=classic;html=1;" edge="1" parent="1" source="PIJa-xAXMbUZL5U9VrCR-45" target="PIJa-xAXMbUZL5U9VrCR-6">
          <mxGeometry width="50" height="50" relative="1" as="geometry">
            <mxPoint x="-550" y="520" as="sourcePoint" />
            <mxPoint x="-410" y="330" as="targetPoint" />
          </mxGeometry>
        </mxCell>
        <mxCell id="PIJa-xAXMbUZL5U9VrCR-14" value="" style="endArrow=classic;startArrow=classic;html=1;exitX=1;exitY=0.5;exitDx=0;exitDy=0;entryX=0;entryY=0.5;entryDx=0;entryDy=0;entryPerimeter=0;" edge="1" parent="1" source="PIJa-xAXMbUZL5U9VrCR-15" target="PIJa-xAXMbUZL5U9VrCR-7">
          <mxGeometry width="50" height="50" relative="1" as="geometry">
            <mxPoint x="-200" y="330" as="sourcePoint" />
            <mxPoint x="-140" y="330" as="targetPoint" />
          </mxGeometry>
        </mxCell>
        <mxCell id="PIJa-xAXMbUZL5U9VrCR-15" value="&lt;font style=&quot;font-size: 30px&quot;&gt;MyStore&lt;/font&gt;" style="rounded=1;whiteSpace=wrap;html=1;" vertex="1" parent="1">
          <mxGeometry x="-420" y="650" width="210" height="120" as="geometry" />
        </mxCell>
        <mxCell id="PIJa-xAXMbUZL5U9VrCR-16" value="&lt;font&gt;&lt;span style=&quot;font-size: 25px&quot;&gt;BDD&lt;/span&gt;&lt;br&gt;&lt;font style=&quot;font-size: 15px&quot;&gt;Postgres&lt;/font&gt;&lt;br&gt;&lt;/font&gt;" style="shape=cylinder3;whiteSpace=wrap;html=1;boundedLbl=1;backgroundOutline=1;size=15;" vertex="1" parent="1">
          <mxGeometry x="-150" y="450" width="90" height="140" as="geometry" />
        </mxCell>
        <mxCell id="PIJa-xAXMbUZL5U9VrCR-17" value="" style="endArrow=classic;startArrow=classic;html=1;exitX=1;exitY=0.5;exitDx=0;exitDy=0;entryX=0;entryY=0.5;entryDx=0;entryDy=0;entryPerimeter=0;" edge="1" parent="1" source="PIJa-xAXMbUZL5U9VrCR-6" target="PIJa-xAXMbUZL5U9VrCR-16">
          <mxGeometry width="50" height="50" relative="1" as="geometry">
            <mxPoint x="-199.99999999999955" y="530" as="sourcePoint" />
            <mxPoint x="-139.99999999999955" y="530" as="targetPoint" />
          </mxGeometry>
        </mxCell>
        <mxCell id="PIJa-xAXMbUZL5U9VrCR-19" value="&lt;font&gt;&lt;span style=&quot;font-size: 40px&quot;&gt;Meti&lt;/span&gt;&lt;br&gt;&lt;font style=&quot;font-size: 20px&quot;&gt;Grappe 1&lt;/font&gt;&lt;br&gt;&lt;/font&gt;" style="rounded=1;whiteSpace=wrap;html=1;" vertex="1" parent="1">
          <mxGeometry x="-1540" y="160" width="160" height="150" as="geometry" />
        </mxCell>
        <mxCell id="PIJa-xAXMbUZL5U9VrCR-21" value="&lt;font&gt;&lt;span style=&quot;font-size: 40px&quot;&gt;Meti &lt;/span&gt;&lt;br&gt;&lt;font style=&quot;font-size: 20px&quot;&gt;Grappe 2&lt;/font&gt;&lt;br&gt;&lt;/font&gt;" style="rounded=1;whiteSpace=wrap;html=1;" vertex="1" parent="1">
          <mxGeometry x="-1540" y="340" width="160" height="150" as="geometry" />
        </mxCell>
        <mxCell id="PIJa-xAXMbUZL5U9VrCR-23" value="&lt;font&gt;&lt;span style=&quot;font-size: 40px&quot;&gt;Meti &lt;/span&gt;&lt;br&gt;&lt;font style=&quot;font-size: 20px&quot;&gt;Grappe 3&lt;/font&gt;&lt;br&gt;&lt;/font&gt;" style="rounded=1;whiteSpace=wrap;html=1;" vertex="1" parent="1">
          <mxGeometry x="-1540" y="520" width="160" height="150" as="geometry" />
        </mxCell>
        <mxCell id="PIJa-xAXMbUZL5U9VrCR-25" value="&lt;font&gt;&lt;span style=&quot;font-size: 40px&quot;&gt;Meti&lt;/span&gt;&lt;br&gt;&lt;font style=&quot;font-size: 20px&quot;&gt;Grappe 4&lt;/font&gt;&lt;br&gt;&lt;/font&gt;" style="rounded=1;whiteSpace=wrap;html=1;" vertex="1" parent="1">
          <mxGeometry x="-1540" y="700" width="160" height="150" as="geometry" />
        </mxCell>
        <mxCell id="PIJa-xAXMbUZL5U9VrCR-26" value="&lt;font style=&quot;font-size: 40px&quot;&gt;RPLB&lt;/font&gt;" style="rounded=1;whiteSpace=wrap;html=1;" vertex="1" parent="1">
          <mxGeometry x="-1169" y="827" width="177" height="162.5" as="geometry" />
        </mxCell>
        <mxCell id="PIJa-xAXMbUZL5U9VrCR-32" value="" style="endArrow=classic;startArrow=classic;html=1;entryX=1;entryY=0.5;entryDx=0;entryDy=0;exitX=0;exitY=0.5;exitDx=0;exitDy=0;" edge="1" parent="1" source="PIJa-xAXMbUZL5U9VrCR-4" target="PIJa-xAXMbUZL5U9VrCR-19">
          <mxGeometry x="0.254" width="50" height="50" relative="1" as="geometry">
            <mxPoint x="-880" y="540" as="sourcePoint" />
            <mxPoint x="-830" y="490" as="targetPoint" />
            <Array as="points">
              <mxPoint x="-1280" y="520" />
              <mxPoint x="-1280" y="340" />
              <mxPoint x="-1280" y="235" />
            </Array>
            <mxPoint as="offset" />
          </mxGeometry>
        </mxCell>
        <mxCell id="PIJa-xAXMbUZL5U9VrCR-33" value="" style="endArrow=classic;startArrow=classic;html=1;entryX=1;entryY=0.5;entryDx=0;entryDy=0;" edge="1" parent="1" target="PIJa-xAXMbUZL5U9VrCR-21">
          <mxGeometry width="50" height="50" relative="1" as="geometry">
            <mxPoint x="-1170" y="520" as="sourcePoint" />
            <mxPoint x="-1370" y="245" as="targetPoint" />
            <Array as="points">
              <mxPoint x="-1280" y="520" />
              <mxPoint x="-1280" y="415" />
            </Array>
          </mxGeometry>
        </mxCell>
        <mxCell id="PIJa-xAXMbUZL5U9VrCR-34" value="" style="endArrow=classic;startArrow=classic;html=1;entryX=1;entryY=0.5;entryDx=0;entryDy=0;exitX=0;exitY=0.5;exitDx=0;exitDy=0;" edge="1" parent="1" source="PIJa-xAXMbUZL5U9VrCR-4" target="PIJa-xAXMbUZL5U9VrCR-23">
          <mxGeometry width="50" height="50" relative="1" as="geometry">
            <mxPoint x="-1200" y="481" as="sourcePoint" />
            <mxPoint x="-1370" y="425" as="targetPoint" />
            <Array as="points">
              <mxPoint x="-1280" y="520" />
              <mxPoint x="-1280" y="595" />
            </Array>
          </mxGeometry>
        </mxCell>
        <mxCell id="PIJa-xAXMbUZL5U9VrCR-35" value="" style="endArrow=classic;startArrow=classic;html=1;exitX=0;exitY=0.5;exitDx=0;exitDy=0;" edge="1" parent="1" source="PIJa-xAXMbUZL5U9VrCR-4">
          <mxGeometry width="50" height="50" relative="1" as="geometry">
            <mxPoint x="-1190" y="491.25" as="sourcePoint" />
            <mxPoint x="-1380" y="775" as="targetPoint" />
            <Array as="points">
              <mxPoint x="-1280" y="520" />
              <mxPoint x="-1280" y="775" />
            </Array>
          </mxGeometry>
        </mxCell>
        <mxCell id="PIJa-xAXMbUZL5U9VrCR-41" value="" style="shape=image;verticalLabelPosition=bottom;verticalAlign=top;imageAspect=0;aspect=fixed;image=data:image/png,iVBORw0KGgoAAAANSUhEUgAAAlkAAAGvCAMAAABfBTDsAAAD82lUWHRYTUw6Y29tLmFkb2JlLnhtcAAAAAAAPD94cGFja2V0IGJlZ2luPSLvu78iIGlkPSJXNU0wTXBDZWhpSHpyZVN6TlRjemtjOWQiPz4gPHg6eG1wbWV0YSB4bWxuczp4PSJhZG9iZTpuczptZXRhLyIgeDp4bXB0az0iQWRvYmUgWE1QIENvcmUgNS42LWMxNDUgNzkuMTYzNDk5LCAyMDE4LzA4LzEzLTE2OjQwOjIyICAgICAgICAiPiA8cmRmOlJERiB4bWxuczpyZGY9Imh0dHA6Ly93d3cudzMub3JnLzE5OTkvMDIvMjItcmRmLXN5bnRheC1ucyMiPiA8cmRmOkRlc2NyaXB0aW9uIHJkZjphYm91dD0iIiB4bWxuczp4bXBNTT0iaHR0cDovL25zLmFkb2JlLmNvbS94YXAvMS4wL21tLyIgeG1sbnM6c3RSZWY9Imh0dHA6Ly9ucy5hZG9iZS5jb20veGFwLzEuMC9zVHlwZS9SZXNvdXJjZVJlZiMiIHhtbG5zOnhtcD0iaHR0cDovL25zLmFkb2JlLmNvbS94YXAvMS4wLyIgeG1sbnM6ZGM9Imh0dHA6Ly9wdXJsLm9yZy9kYy9lbGVtZW50cy8xLjEvIiB4bXBNTTpPcmlnaW5hbERvY3VtZW50SUQ9InV1aWQ6NUQyMDg5MjQ5M0JGREIxMTkxNEE4NTkwRDMxNTA4QzgiIHhtcE1NOkRvY3VtZW50SUQ9InhtcC5kaWQ6N0M2RTcxRDlBNTBDMTFFOTlFMEI5MUI4NEM5Qjk2NEMiIHhtcE1NOkluc3RhbmNlSUQ9InhtcC5paWQ6N0M2RTcxRDhBNTBDMTFFOTlFMEI5MUI4NEM5Qjk2NEMiIHhtcDpDcmVhdG9yVG9vbD0iQWRvYmUgSWxsdXN0cmF0b3IgQ0MgMjAxNyAoTWFjaW50b3NoKSI+IDx4bXBNTTpEZXJpdmVkRnJvbSBzdFJlZjppbnN0YW5jZUlEPSJ1dWlkOmVkZGZmNzVlLTNmMTgtYzk0ZS05OGQ0LWQzMmY5NzdkYzRjOCIgc3RSZWY6ZG9jdW1lbnRJRD0ieG1wLmRpZDozNjdkZDAyNS1jYmFhLTQxMWItYTU0OS1hMWRkMGM3MDBlOGUiLz4gPGRjOnRpdGxlPiA8cmRmOkFsdD4gPHJkZjpsaSB4bWw6bGFuZz0ieC1kZWZhdWx0Ij5tb2J5PC9yZGY6bGk+IDwvcmRmOkFsdD4gPC9kYzp0aXRsZT4gPC9yZGY6RGVzY3JpcHRpb24+IDwvcmRmOlJERj4gPC94OnhtcG1ldGE+IDw/eHBhY2tldCBlbmQ9InIiPz6DrCEgAAAAGXRFWHRTb2Z0d2FyZQBBZG9iZSBJbWFnZVJlYWR5ccllPAAAAwBQTFRFR3BMKFShKFShKFShKFShKFShKFShKFShKFShKFShKFShKFShKFShKFShKFShKFShKFShKFShKFShKFShKFShKFShKFShKFShKFShKFShKFShKFShKFShKFShKFShKFShKFShKFShKFShKFShKFShKFShKFShKFShKFShKFShKFShKFShKFShKFShKFShKFShKFShKFShKFShKFShKFShKFShKFShKFShKFShKFShKFShKFShKFShKFShKFShKFShKFShKFShKFShKFShKFShKFShKFShKFShKFShKFShKFShKFShKFShKFShKFShKFShKFShKFShKFShKFShJJbtKFSh////JnnMJ2CvJYrfKFimJYXaKFyqJJLpJnXHJYLVJ2W0JnHCKFilJX3RJJXsKFWiJI7lJJDmKFqoJnzQJYHVJ1yrJY3jJYneJYPXKFajJJTrJJPqJnvOJYTYJ2m6JYzhJJHoJ2e4JnPFKFmnJnjLJ2a2Jm/BJX/TJYjdJ2u8KFekJnTGJ1+uJ12sJ16tJYDUJm6/J2KyJ2y9J2Oz9Pn+/v//J2S0JYXZJ2GwJnLEJnbIJm2+JJLo9/v+K5nu/f7/0+n6JnfJUH6+S6nwJnfKJ5jtyOD2Q3G22Oz8U63x5PL9jbXg7Pb+daDUxeP6hKvZM57uK1ejJYbbg8T13e37XYzIXbHyWK/xQWyxLV+rLlqlZpTMMV2nb5vQPqPvntH3b7rzNmGq6PT9Q3e8+/3+8Pj+Qmmse6XWabfzuM7oMWSw5ev1db30vdnz4PD8vuH6ob7hqsrrRabwrNj4Lpvulc32ZbXySXi7qLrZydbqr8/u8fT52uz60NrrbozAmb/mf6raO2evVILBsdr5t935ptT4n8Po3OTxpcjqiMb1zef7kcv25+314OjzjbDaVXi1OaDvl7jfjsn2T3u8v9PrYIrEssLdXH24iqLMe8D0l63S1+b1VYbETXKynbHUN2y1wc7ktcTf6e711N/vi6nTZYW8dZHD0OX3tNLwg5zJKMCRlQAAAFR0Uk5TAPwBApAwBiCAQPn+CvCx4Oh6cRc4tjuIlNDrWFPzHKWtoC2XSV919c9mNcWMyBluaYVN3g3b7kMUJWPiXFDCwJwO1tPMqeW5ECO92TI+fVpGKponKeEe5QAAJClJREFUeNrsnWlXE0kUhgNo0ICKgiIIgiKMGyiKG66MDuPo4DKmT9hCCCSBhJ2QgLIOCug5KsgXzuEX8DMHcI651aTTXV2ddNK8zzfv6VRC9WMvVbdu2WzgF3evHT2WJwmQdbPy0nP0I2AprHJIBuA4ALcApeyIZBAFb9Cb4BfHJePIu4T+BP9zTTKU1+hRsMupLGPNcrxFn4Jt7E8lg3mETgXbPJAM5wJ6FdhsV4w36yh6FdgKjRdLcuSjX0FZEsySWtCvgB3L8k+Oe/gJuaZZszCmBWxXqREDQ06dbPXTdmrQr+AAEaI/4NRNpIc0dAj9CqhZQacAGzALKJi1MCZiVp8fZoH4Zi06heiHWSC+Wd1iZrXCLACzAMwCMAtmAZgFzDJrdDgUCvu4AjALaDBrcifwWTXwA2YBPrM6dwKtXAGYBWAWgFkAZsEsALMAzAIwC2YBmAVgFoBZMAvALACzAMyCWQBmAZgFYBbMAjALwCwAs2AWgFkAZgGYBbMAzAIwC8AsmAVgFoBZAGbBLACzAMwCMAtmAQ1mrewEprkCMAtoMGtwratrI8AVgFlAg1moUwpgFoBZAGbBLACzQLqb1Yq9wkBSzFoYFRFrHfsbAgWzpFkRs1zYkxUomdUZ1S9W4D3MAkpmSa2DesVq+yjBrPSgKTc9OEeNkEaWQ3Nt3MwtffZLMCsNaKg+WipZGZhlCvbjtyWLA7PM4N1TSYJZwHCKbkswCyThirUfxIJZJjxjPZVgFkgCxyWYBZJAfinMAsmgWoJZIBlUwiyQFApgFkjKYxbb/1+COubo2rY+fNpzJj9ubuloaS74Vd7QwszwEH9DQ57lEZhlJmeZyd+g3rwC36rMB69Pb1O9rBHfA3obinyCWSaSS3s/KJBlN8P48EOgpV7a0IBIflY/zEoPs1ZE8jfdNM2uZ12kqa9G5ZSOw6z0MGtcaDXDMmlpXqilIFHUCnnwhRX39rlZHUI+fCAtbQi1NGextTsnJcfVpn1tVpvQWaSPRy6hltqstd7w0s7Xl17KgVkwy1Dulf/8ASWHYRbMMpCc2l8/oTIXZsEsw3hFusXxyg6zYJYx/J3FjPO9PLXvzRp2uVxzTp6AkllD28d5nDwBBbOi4y5X0M0VMN2s/JeyuYm8q/b9bZZn59/+QZ6AglmBEdmAp0JgSdWs7p3ARKLAV3nAdLMO7J0av3hvX5vlkg9wqQcUzOrYDXTxBNosU1v5cl6crIvyapgFs8RQWmJw2g6zYJYIiksMautgFszST125Yh5i80GYBbN0cy5Bimv5DZgFs/Q+vlOTpkfkww/XYBbM0scLmvrmi3zZZ5n5MCtZ3CH94d/uWt+m/LJ1IBtmwSxusp/RVQE/5xoGZGqdy4FZMIuXMtId/f/POLknZGpV5MAsmMV5yboYd+XKhn/fqAWzksMF0hufyAq54XZWrSfZMAtm8fCI9EaIWQXZKXuMh1kwi4NTyovtAq2sWjUwC2Zp5yTpjLB8ZeY0q9YDmAWztPI24fpg3yRjlqMFZsEsjVSRvvDEqYIxz6hV+hfMglmaaCJJDotxC6ywaj1tgFkwSwvXSVf0xq/dw46ZVmbDLJilgRIy/K5Q7cnHPsafgFkwSx2aPtOltGBtbIWalVUEs2AWz/O7v09xLWSU2STv2HOYBbNUsB+JfetEgmW2EWaipwJmwSwVyrQWjupgpqfPwCyYlRhSB/1T4uIAdJ9r6XYhzIJZiWhwaK9QxwxrVcIsmJWIM+T5Xa0u9NgiVasMZsEsbTdD9Uo6bQuk1+7nwyyYpfxmWM5VUpiWf5auwiyYpQhZsuPXUsue5j1kvYNZMEuJA5xl5QJ0VOuo9c0yun7WEk9Ad/2s7jSon/U7b+VDZsuOFsub5Qy7XK4hJ09AqeZf2/Zxw06egFLNv6C8xJ9qIPVm1ZFeGNRW8rKbfORZtuXN4gd1Snd4oHmYNDbLQ9dOP4RZMCsuT+QLozUwRWtNZsMsmBWPWwnTlOPjpnua3YBZMCsOz8mYg1vzz6SDWldglpwgzGKWRn/X/jN9dI/PIgua9U3oLG6SltaEWtpSWZ+gnZTvFXYo9oUzHL9z1oIT09SsTaGzSOftJ4RaIsklI2MiDfWlfH/Dkzr3/CQz01lnrWfWok/kLPbQDakDBt3DxHbzXEt5hb373KNZey9ah6xnltBNjF3mNCkg6QZt6P2gwPNaT6rPV1Ps+9q5fqqP1BFptlvPLGlKrxDr8ppjk3p3Fvd1sQ11zukV61t/yquCFsW+7wvfj6U72l5IEzcazrcc1s8Z2Xlc7fXwE5xp31OWun05qKOl2amBPS1Nupb4G1r60C2r3HhYhL/vajoXjfoe4HfGtHrSbLHFX/VPJZAKmp9omC0u1v+ASDZ4/838xfh1FXk45anjymW1E/KH/iGcuXSqe3ThNs52Ssk7rjKrV6vz1VD2Rmz2kNZrXLBSzj+J1SqIze1wvwuRkeZycxPi30AsE6hPdErsseMGuF9lA+kyLV1YitNsBne0pf2t8I+SkO1TTptp1jmcZFO4mWAc8zwZKuE3iwxpvTRzhDMLJ9kcEuzVezh21DK/WRHyJSbOHR7CKTaJR8onhdQKmdIxaTCgSd9k8wyn2KyhB+VKV9ViU7Az5B3UNLHseDFMw2d4MrmjJ/dxKfbxEtPMesf8rf4f3/rc/ER6v8t7bX44oKOhwdk920JKX2YHdbQUCM/7ZQ31b7ZF+RuKDnXtmcs0qKXrimflhP7Jnd1EpNjHs0wb0TpI/9T3utMBnGxiQU/YiGy9XT7obqmjh2lo2q23oegK+5MmdbfUx7RUo8WsXj3fQ+pLtqSDWf4tgbSqGdpnHoGGWEdXBVoK04YWBZJK15m8iVaBlqJ0G6ZDSTPrs5YLYwrNmhdJu1wnV4hpkYZGaTbUe6EkY1pEY9io5URSWKSlIK9ZQcELf2ysNKfu8sPGmvqqipOPa0tKbh07drOk5NnjPyuq6muq37zLT6ZZIlcaJhc0KNQQvfr9MGp9WbtIArVzjKw+bhf6SW4/p1m6Vi91xD7/2GY729JYXFnbrDJweftixauy8/akmBUR6jOyQHdLqCH6pCW2VoMklHwXaoiOEK2ItaRpFVC1oFnR2OcdF8t53lcdtaer3xlultBqBvp8ZOmVrN2GOarJrA1Rf3VQUNGYC7MsadYN0VeYFeHBtt/ri7JhluXMIjuxftb1LfNGjOTeLz4Isyxm1luhXIdt/jVomqDkUgPMspJZhaKvHuOGTUGVn8411KxRl9e7SnP71QPxzfKNe71eume7ekDJrOFVr3fcxxNQMGtwyuv9N8AVUDArsn1cVx9XQJNZOQ7BQY4lA6c3s/54a6BZu8ljdH8q9UB8s2bjByIJAgpmDcqHytQDCmatyEdz1QMKZrXK71fqAU1m0epZuqaSOozNyqjINcwsr1wI9UB8s6xXW5m21CM/Tj2gzawXsaOGBJ8D4tPTvsOI5mGu+nyYZQmzSC3JWT1mBfbKMfKpe371Q+/wXCTgjj0xuPsiW57g2szkgD+xW7fuwCwrmFUjllRK82ikkdb5rt6tPrWP+CKezfmPCdy6aodZmW/WBcHpfffPzw5MdHkGuWZM18Nr3Ur3yCuFMCvjzTpL0j30mdU/ufFtXef8+7B3IK5azUUwK9PNsh0RHGYUqBa2y9BUZ7wH+UaYlelmvRDM/TOAjvk4t8UqO8zKbLPqjcpREyG69p5nLRvMygSzyCN8v9M8xlz9MMtaZjXlGZWRKepW14LGBUcwKyPMsl00YvmSIQxO04meQpiV4WYVG5YfLQ7561/g3TDTzTplWHqT+EWL/JRGmJXpZuUcSZvb4SrJqHkOszLdLFtFutwO6UrSkxgpzXyzHkqCmTRGQRetv4ZZmW+WndwOl00UK0rKnJTmw6zMN4uW+Vxwm2eWl5yOYsxIW8GsN4atNBF6MSSTh46zMMsKZuXcjB3a6TPLLFp15QnysyxhFk0sFSzCop8QXcRzD2ZZw6zC2Now6aM5Fy03nZDmq3kKs9LXLDqkZVKWFq045aiDWVYxi2w4IA2YcdFiqiYW22CWVcyi+5Sb8XoYpffC5iaYZR2zWkhXtEdTbhZ9L5TKsN7QQmbZHkkmDsQzO7z/iTXSljKL5tL451IrVpiumnbcg1mWMst2lHTG4mgqxYow2yKcQMUQi5l1nu5e05XKp3dmMeujHJiVUrPa5cepBzjNslWZcz8cY/a7OWJclaPdyl79YwkCs/JAfLN2z/ZCQB7oSxBQMCu6+98/zBNQMGtCvopvT2BS/sSsYNae43YDM4kCvGbdpbvHfxxLkVi+aWbBzhkDq0kOhUIepnyJakChmmTb9mFMHrdqQKnmX8ATCjF1KlUDCmaNhkOhsE8t8M2nbtae49QDvGbZrtNTnKJVrb5JdmE06pTKyNg6pZQGZp/vXhPEqrXDLOuZlX+tgDnLC23JF2uMvRUW6NsxGGals1nP/2PvXGOiurY4vpV2tDPjA9SKD1CpFrUYH1UhUnxU8f1olY2ggvIYGHQULCiCCIKIYOXhsxETNY2xmqs35sbX9Zomt9HER6Mx9YtNTHt706YfatOkTXubNrnXWmbOOmfOcIcZzjn7sf5fCecc1v6xzz5rr/1fkf21vgqbDhkNVpa6x6R9PLp2i0bW+Nnx/mYwjUbvTHvq1TccToQhq8gIsg6EF+4608mKfX2unjlaq9EzVrXGIiSKdANZ4QEBKvHD6gCo2q4KLzcIvKvrw4s3CHdGeFdaEwxZ70ZO0O3vXWx4aWmRxjNrMOkOssJ7bNBEqC2sC4FGiSH2BvGqHSQZw1qeQKvi4rDO0cCT7PpkORMTpgUwCt1kdKa05KDWiK1nt5AV1n/jZnChdeFscMHDItQVjsNPPnQKDqtTYiuMdmU3zew6ZDkTJ79hD2hufNDos2GZdd0HloqscN49WRnwQlVh4KD+MtlX0j2jGNbn+jnVKyI3jCs1uwKRZVs6buWQztqmrttiMFdp7cXdCJaaLJoT6u5BZobmCybUl4+nSfPX7Qt11spqUF9ozd6QP1Z3a64UclvkItWVOsiyrUqJTJ1rp51qd63RGzvbtJGnCWE1OFSTRSsOtq/uurJ3urRPlVsTyoXayv1NV13lbSFcqb0x1+9Kda0hXKiytd5/nDNCulKOxsd/5egZy2cvTnbQ/ytXo9FGRyW1fpFfHixDzsTIUYv/aHmu0nyKYl2uRsP9JPf6GcDb3woOq6ljFthxiLhUbo7HaK6q/V6EdHpwbXaSJvfBEeJTLUWGm4VUl/vfdu6iYLiyTUSu+NSaKuP3n8/t1LlxalBuRovm4RDxKHdDqdFbhGklRS06d7aPC+pNOAUnLA5Vl9NsOFZpma0Vevd+Oy4osGY4cJh4m6zKikwwUy5oz9C9uyMhOF+/cThQXOUX6huKPMZTlZbZts+l/wRLgmw0l4IzFi8qzqipPGeGaaQnr8Ed6CHsy4M0Il0VgyPGwdvvQMMHG7flmwBVYWlljbuTJxkZ7OEv2xC/3929BsWE3Jtadja2tuc1e7rz4HOgOe/Q5r2VVTvdnRM+9p2g9wQjNUm3ys1mHVdDWaICl6uivqn8YFVOa3Z2ZXZ2bU5OVdmGOndxEDPntGHB7z/HqqqoW9Zi5EVXbchv5CUzunLyKxr+6o58DLzoyneHyNW84V2ybUiCU9Z7GHfxtT4krOypr3Sx8ioK/HYthl0ClYfAVb/IAV2u6Zug/Po+fBVKsX7vKlZDo18NoWx0ALhCNYZdArV1Dav5K0eH5NdAhinXaMKoy6B1wVPV443Il0Muck/A5btcKg2SqpjFvROd4RydAAaX2zDsEqgsiBfgoMEr4mwkTL2t7HXi+l0CFQZev8cnzxsUHTV86ULSLUpWdjwx7BIIOA3QMaNTUoaNeSsl5Z1XlsXFOkn3Sikl3YRhl0DgLONYYqj64Jwlk5rBlDXOLLLWYNylWr/HOI0lKxnJkkgw/x5tLFikn+9OuRh44QUMF+m7BpMF2ltj4EUXrJ+ZaTBYZAiSJY/2gilrhYlkYY2y6NoA6hdsRpMFei4ewtCLLeAhHYZlbbBaoNysAGMvtkCHesciw8nCHWlpdAh4VA4yHCwySrlbJgZfaFWCl2GK8WSBjovnMPhCCzhBJkcYTxao/NuCwRdZ8MhOpPFgkd7K7XZh9CVJOdiTTCArCquV5Us5zDYBLDJGud8HGH6B1QjIijODrBRw8h7DL64KgR3ILDPAIsuUG1Zh/MVVrbkph+eKU25YhvEXVluBie2bEaaQFavc8QAOgLB6D0xZUaaARZzAAhoHQFiBgxV9pppDFonHIxbiayOYshJMAgsUlbpwBEQVaLHcI9YssoDL0XYcAjEFWrDTEWaBhWU0Egh2YxpvGlkrlZuW4hgIKdgVfrFpYJHJyl3zcBCEVA0ga7R5ZE1S7tqOgyCiPOD46pCe5pEFNg5zcBREVAOYsoaZBxYZj9s7YqsA7EW/aTORLGCBuw+HQUCBEzt0kolgkZ49MAkvy5Q11GkmWcCNhpbgQAinHJPL3/VPSWOqVDgV7rZgL9r/xCGmSoWesnqbCxY8vVOEIyHylLXQZLLGYCW8HFPWZJPBgpXwmNAS+MMwJslsskC9cgaOhbi5rMFmg0Ui7EpjchwLoQR3DGMGmE4WmYsWWoKq0dIpi5CRaEcjpra5rFxlPddgtHYQU2UW5rK0aQesoxFI1dTCXNYLvao8wE4cD3HUZN2OYYcWUqx2EFDQiW3oVEvIIv2VR8jCERFE+fXmH7j302L8OBRPRQCsZKdFZL2EH4fCaasbNl+1CCwyAz20hFMbAGtuhFVkjcdSeNFUAKpn6BSrwCJOh7JzmI+jIoLgvs5MYp2mYcGyuElSOtBCslLRFF4sAVcjmmohWOR15TlacVj4Vx4Ay97LSrISlQdpwnHhXllui6tndPd3cAnPv3YAsPrPsZQs2Kcce9HxLg8ofqfjrAULLuHxZBjv2slEkrRDoK9TAw4N39oFMw6JFoNFBqIrvJDL95FWg0VsdnRYFkTwIFh8L8vJgt7d63F0ONZml+WVpAELaTBXyrNg9n2ajQGyhmO5gxCCnZvM9FEOLOApWbwVB4hXFeQCsPoSJrREeaJmbgJ54s6pCxdOfYNEeVXOzIahote48zq6eOXYjfQX2n/7i8tIVZp6J5qJ5fsfWsHXQuvI+dPpUO+fuYBgFVbA7LuNEbKA15HrEPMxvHo93U9n7shOFjxt7xhIWNE0fjJaZ2+n6+nGebnB2gvfhdHMgAUXWowf4LlzOj2AnpyQGKztcFtn/hx2yAIZrT1MR/D4h+kBdUZitGBHMJrCDlhkoYOPYxaXr6d3os+lRUtV4jCSsCSwdbia4Y/Ck+md6ltZc6RrAFjTBzBFVm8uzI6uAIqOPvzh98eP//sQknX0lJxkbYBT1gqmwII2Wuxu8Bw/qjD04OafT/uratI6KeX7cDVlb1vHp4jpHOQdzvgI+urrjmf9TfM+/ERCsDKL2X0XPtcI5eEOMhrBUz5+/n3T+6w/aMi6Jd+kld9CLeq7GpyGKQ9Xkc9mCO96N3Me+cCiD7SLePn2eVopK2eiA+QdlB6adC2bH4b7vfQ8Vh71ey1Zd2UDqxSCNTSJPbLILNZNli944fkM7HLevKEh67pkYBW6Wc2R6p0NW8dkDL/VmbIo/Uk7aV2Wa5F1AAZjJYtgwXoHWs1iED/vQOfwJRhM158rraM/e8n6VCqysmEsljiZJIvMY/ycxTH/l+ELPfvu6dNfnl3y5rqkqnlohod1eixlEywSybgzvLfI4Tuqq/90/Phf0i6yIhkFi6yibPt3ezejH+iT9bTjx1ckWmRBEwc6K4JVsmBDuir+5qx/yjdn1cK/f3oss2CR5WwnS73rrIe6YH3kTT98IQ1Y6ynzCYcOLaJM7x16vw33f6RH1tfeb8OPZQHLA0tnaAJhWROYbld+38vOb3pk+TYQZTlqsbUO/vkTbEyTNRGkidgzpfHl4H/Wexl6Pw0/lGXKKlPt6sQyDRYZ4GC5svTeYS9az/zJ8u0fPpEErDbKnIlDZ1qgPGsGe8F84iuiuaYF68fDkqXg1av3wayDBUtp6GZ2X4fpDy+pwbrpTTmkn5ajPisTmoPQmRHMk+Xsw7Rl6Zc+tD67qfou/Mr3Azn2dgo3wT8/eQBhX9HAG569Dq0XlYqGR9/7pq1rPymVNLeOyABWCXRgo/bxHIAFW9KxeDrsLnAJefTg8V//du3H3385LF1FqerYqnWdMUPe4WHQZ/nerc7PG8qxZ6ja1KEv8QEWTGmxWLR8fH9nYMlx/L5IBdYsGydkzYlhOg+fdvFwYLCO3ZMBrFJYkkX7JRFeBFxpXB4GA3sqoGXIGSnAUucb4l/mBiwSRxk/aXH5S12u3r8vxavQo6r1c0whHGmm8uC5WSwG98R5ncXWSTkcHbbvUS2yongCS5WHb2czvmfv/0PD1VU5Uu9ZquPQLFn7BSPbfFAPn89oiI9cfeItXj567MrxNDlUovKcoYMi+CILnrRgut/h2Ysff3L10+NH0mRRfrkKrCFTOQOLLASJhz35aSg2U+/zYwl3Ag2eaB4OKCuqUoHVZyl/YJFePbCVJutg2RMJjwKNpekuHFMmtEMFlmMYl2CpKh7qcKXFHlh0IuFUC3ClxTRYk3kFC/Ysp+tw0mINrGjCrxZQLvzh5QRrVE+OyYKTlhvbtFqrHDVYIyMIzwLekjQbB9fKzLs63UD72rgGiywDf8vuAhxf68BSZ97pYs7BIqQv+GtqzA6np7a8vNaDWKWllZRrwHLyDhaJc1jmW7q96kVBrqsdwcraIBxYhIyi1jSXLqnM5aHSwpz/sRYBwSKxdkuqaTaCqskKyb9KPXtEBIuQBPA3VZhketSsOv1Lt0gN1ma3mGCRhUOpyS4P1ZpVhdxJ2i27xUo3AE2iprotr93g54ol855lkUsdi1RxwCIRY02seSht0nHykzjx0KoJxewIIpBgutTQTHxJUZ2e92iNtFxtLdOEIqEnEUojYIObTKPCWJjt1jXizsiSFawCTbaBLieCKTYGvg9LjFle1RTrclX8l29kBata85/mmEGEE7SmobUGpAJX1+t3pKB//zX9tqRg5Wn+1eL/1965BjV1pnH8BCKX3AyRe4ghKEFAJSSAIlovhEJp8ca+qThFK+ViarcVQdCJqNgqFLo6rMU6TuJwMUJlFwTWuuAw4NKF3ekypeyAzura7q4zrn5xpjP92M6G2nbJueWcXA7JOe//E3zkOT/e93n+7/s+zyb2gYX46xfuh25uXXr4bG0ZAVdjk1wdN/6rUnTuLi5A2Ki4Be94wPtuTHxKq86VEGAF+h6/GCnXxMH9sMaECsbSXQg7FbHwr2x012pV1bKXCCtwcOSXvqPXuOe7v4GKhn4ZS8FCROnuti7LjdWEqxUAxwcXdpp5zjV7FF3NSEQIaxW+8DpNiYveZXHVhfOARAc77TsYXfwLl7iqbEHHg++PsFipC//U885bDzXv1n9YRoYV6BsZxvTF+pg7YBWh7WJBIsJqBUS5nGoVdx9pfB840HdPhnF6+T3gjtmAOoEGGcEIyxUnsDtyqTpK49pUZVHdvmqHUAFQNjRK0H6UI/MKKxvRIdn2CsJ6yTBp9hlT44XX67qPVhCcU5dWFFUZ6xvffANQUl//fwg7Jt/5Aydsd8x/X2wa+8FC/MKIoSg51GCqbjlQv29e9QcONFabGj44DmiobGiilazL+yX2p1qln2AS0O1+CBe0/mXgKY113jU40F9ZfwD9EToqCi3CEYXzPIJVX8+XBgpi+QAwI8bey85EOKMQT2A12mqgpOHfs5irilpMZFQi7oBFmmo5tQn2PzNQVwd7s/izmJyU7S4WWnmvuo2qvUPWuwZ6usrSyScV1ZjopC9BOKZCsTuoOm0ZfNZqoC92jgEzYs/llWkI57RS6GpiNdX5bNjgpFhYIL5jwoRIEY9wUWoXoBrqn/i3wSX9i20e1pXTmDCtKkS4KRV9pN4bG+qxjjYZ3CB23TDtxr5WEkYEcBQsJCDX3jwf6+siug0z9t3Qt4OPR++2Gtym4b+xh6uac9iYZRUg3FWa3i4WA2bD8Fd3/z46MfHksdU6YrVa259MjH75z6/cyNPCy1pssbVKj+DcqFXmIVzWMp09WuM4IyybDZ5SEzuGGHbvwXIl3YRwXJnRdgG5OW1gUk0smDdXfgone8hZj3BecRn2MXnIKFodvo5WcT22IgTRMZArm0JRjulcK0SLujWK12dABRcsfLT6myBa1LQfry9K1k6I1M9al2Afm6dtjOZavprGd+P1ceKtToNA/V8FqFXrtplJtC7+zhe5KqrF8/3WLIE02SnJvkIEXbNMojX8mc9xdfQU3ns4scYfsoSuENHXl/vvMIhW86ds4AqolkGQcHytdFSYehndEW/5EleNuFzpQyFF+G68HhWprnYm7Yd/+Mp9raJqXK6iE+FGSCRRLDpa92cYROub6z5RD5pwD+wFEVshQMTyX40O2M1ZBpetNu83ts424N8EUQZCesilwbwVe3qJQffBu0vEw0cO4XOVDBMsCsaWFB22LiuDReIXXnzufIzgnXi2FmJDRWuTMaG7N9nMGFp/9tJkq7uaoJ3T0niYuFNUAB8bvsvMGRBtXnjUU2kkaj4nTQmAxFCXHOe1WD9jVeKwt5mmRSeIOrBKZSJICy0FvoTTX2bwBhd3xMNvfUj01CRaDbmibz+E4PQT6Rphiq02b7kef/IEYWdfqRpeaXDuhHobXl+sQYYsiOZbHy8+VhVXzhA+jdNpYH7ldCKfitsGqWecGbY+X+REvvItE3Fv3207IFeuKE6PG9apR4zcOG39YvHOEUvfPXWa+Clvvpa8eV9aTAh/uzwPAkSSbckUuKG9bWWkULy6ONlWadU54mkcgKd0cLNvPf9Fd2GeajkkiMQ2VRIE+P4kEwvXg+vehRXIiHCES5IUSIMKdhWEZAFxMASIROFrCII80Gn2vDPfwWjnh+Kzp8iwAqs2OLQZCsU/NzUS7QYJr0F+SOQn1xFFurfd86XiNabuP5QfMb1HhhUvJ5xCsJJBrF+4LCg1RBuAqEAUPPghrxI1UsJ4WzwOV+sDzw+uK+0+toe8AY8uhNI95JVAsR6RgASpEIQheWIA37M6kEhGzJbn4Wr62qPmVrmxei85VoKcnRQXHxVYgdjI2oSEAhCI8EEOZMcxW2T943tHxj2a0Ld95iEHovjtEx846heWrab+bCIbyF+QFShUbEViQDokh8KeGJ9NFv+bPQ89aUVcdf+snuKqYw1ljrDKiEyiE6RoEDxPVnayQLcOsS1cYsgNJa1z0Oe7t3Pyc99gq2b/hfMOqQICSQxNrz0daOfJSs4V8Gwp1k7wMoSGogp3JwBHdE23eTdbRcYWhzvgfCPI/ET6NnoYCJonKxiJn98I1SAfIkNZeSlRDj9K7+Cs+aIn2Lrx3LVcvvztelMJpWasa2RrnYmOBugCfiQrTwiW+0UBNQSGjpJ2Kxx/mq7Lc9Mz7n/30/FfJ2358v37ag9Sa/ErTJY5ezCTFm2DSSkOty1c4vgNQAybHdGtFDe8ROkb3bw/8sjs5qrx4gOa3mnlr40H3qQ8RE+4OWWtC5GJB7yNP/2oFYAUiAp9LVfrqX4sy2D79Pfu5OubP1HbFH970nih9lAZoCxFzkZXryikAhAb7o8gS7YI570tKKfS+SA6g3vu9cw9HJ9xU/p15xbpwlVzsm5fYwOtYZ8A6CJ3uuPW1UaprajMsuULGRqIiPOKC9LT+3zg3red7ZPmG64vYZe+xpz6HH6nu+7Kidozp2lPTxDkytw2a0KUKEkX63JT4AUtV7dFTZjAieEqA1M9ne0PfzDP/NHpuT3N155f/3G+9W/qXj/WUrvnOHBOUatXwqcS3qm0GFWWC2OhBiz3+zvn2mcfTY+bL91o62giY62po23me/P4D49m2+cG+y8fKgEuSbdFDus371amJtYtM+1+gu12r8Vimbr8i55OWSz3bg+4ddRn+pZ42OfDJ+Qfuj0/AfiEeKsi5bA9n08pICklR+rdVEkl6mCYV/mmXtm4Qi/wRqjE+RExcAP09cXrtUSvwisrLEKe6Qe/C2vwil8dlrXITCnW7E4pgOYSG7U1dAM/P0vIOFJCXRhfEwxf/bF+/SrUyiJzdTwm0qkoCT9Fuwu+kOcWYIEFcnWkRO+BAlLxar4yQhazBO583JYoM3RTYkhkTv62aBc2Sp40e3POitSUHesKYdMhKIzSlseFa3doQiL4KqUkd/Oq7KVSsU0LSkvB/O9LdVH6zbkSpYqfqk6UawviAmEPdsb0Px69zdh5oIBmAAAAAElFTkSuQmCC" vertex="1" parent="1">
          <mxGeometry x="-412.75" y="660" width="45.5" height="32.63" as="geometry" />
        </mxCell>
        <mxCell id="PIJa-xAXMbUZL5U9VrCR-42" value="&lt;b&gt;&lt;font style=&quot;font-size: 30px&quot;&gt;OVH&lt;/font&gt;&lt;/b&gt;" style="text;html=1;fillColor=none;align=center;verticalAlign=middle;whiteSpace=wrap;rounded=1;strokeColor=#000000;" vertex="1" parent="1">
          <mxGeometry x="-1355" y="110" width="80" height="50" as="geometry" />
        </mxCell>
        <mxCell id="PIJa-xAXMbUZL5U9VrCR-45" value="&lt;font style=&quot;font-size: 40px&quot;&gt;YODA&lt;br&gt;---------&lt;br&gt;Gravitee&lt;br&gt;---------&lt;br&gt;Cerberos&lt;br&gt;&lt;/font&gt;" style="rounded=1;whiteSpace=wrap;html=1;fillColor=#d5e8d4;strokeColor=#82b366;" vertex="1" parent="1">
          <mxGeometry x="-840" y="360" width="220" height="320" as="geometry" />
        </mxCell>
        <mxCell id="PIJa-xAXMbUZL5U9VrCR-46" value="" style="endArrow=classic;startArrow=classic;html=1;entryX=0;entryY=0.5;entryDx=0;entryDy=0;exitX=1;exitY=0.25;exitDx=0;exitDy=0;" edge="1" parent="1" source="PIJa-xAXMbUZL5U9VrCR-45" target="PIJa-xAXMbUZL5U9VrCR-5">
          <mxGeometry width="50" height="50" relative="1" as="geometry">
            <mxPoint x="-610" y="530.0000000000001" as="sourcePoint" />
            <mxPoint x="-410" y="530.0000000000001" as="targetPoint" />
            <Array as="points">
              <mxPoint x="-520" y="440" />
              <mxPoint x="-520" y="320" />
            </Array>
          </mxGeometry>
        </mxCell>
        <mxCell id="PIJa-xAXMbUZL5U9VrCR-47" value="" style="endArrow=classic;startArrow=classic;html=1;entryX=0;entryY=0.5;entryDx=0;entryDy=0;exitX=1;exitY=0.75;exitDx=0;exitDy=0;" edge="1" parent="1" source="PIJa-xAXMbUZL5U9VrCR-45" target="PIJa-xAXMbUZL5U9VrCR-15">
          <mxGeometry width="50" height="50" relative="1" as="geometry">
            <mxPoint x="-610" y="450" as="sourcePoint" />
            <mxPoint x="-410" y="330" as="targetPoint" />
            <Array as="points">
              <mxPoint x="-520" y="600" />
              <mxPoint x="-520" y="710" />
            </Array>
          </mxGeometry>
        </mxCell>
        <mxCell id="PIJa-xAXMbUZL5U9VrCR-50" value="" style="endArrow=classic;startArrow=classic;html=1;exitX=0;exitY=0.5;exitDx=0;exitDy=0;entryX=1;entryY=0.5;entryDx=0;entryDy=0;strokeWidth=7;" edge="1" parent="1" source="PIJa-xAXMbUZL5U9VrCR-45" target="PIJa-xAXMbUZL5U9VrCR-4">
          <mxGeometry width="50" height="50" relative="1" as="geometry">
            <mxPoint x="-610" y="530" as="sourcePoint" />
            <mxPoint x="-410" y="530" as="targetPoint" />
          </mxGeometry>
        </mxCell>
        <mxCell id="PIJa-xAXMbUZL5U9VrCR-53" value="" style="endArrow=classic;html=1;strokeWidth=1;entryX=1;entryY=0.5;entryDx=0;entryDy=0;exitX=0;exitY=0.75;exitDx=0;exitDy=0;" edge="1" parent="1" source="PIJa-xAXMbUZL5U9VrCR-45" target="PIJa-xAXMbUZL5U9VrCR-26">
          <mxGeometry width="50" height="50" relative="1" as="geometry">
            <mxPoint x="-880" y="710" as="sourcePoint" />
            <mxPoint x="-830" y="660" as="targetPoint" />
            <Array as="points">
              <mxPoint x="-880" y="600" />
              <mxPoint x="-880" y="908" />
            </Array>
          </mxGeometry>
        </mxCell>
        <mxCell id="PIJa-xAXMbUZL5U9VrCR-54" value="" style="endArrow=classic;html=1;strokeWidth=1;entryX=0;entryY=0.5;entryDx=0;entryDy=0;exitX=0;exitY=0.5;exitDx=0;exitDy=0;" edge="1" parent="1" source="PIJa-xAXMbUZL5U9VrCR-19" target="PIJa-xAXMbUZL5U9VrCR-26">
          <mxGeometry width="50" height="50" relative="1" as="geometry">
            <mxPoint x="-830.0000000000005" y="610" as="sourcePoint" />
            <mxPoint x="-982" y="918.25" as="targetPoint" />
            <Array as="points">
              <mxPoint x="-1600" y="235" />
              <mxPoint x="-1600" y="908" />
            </Array>
          </mxGeometry>
        </mxCell>
        <mxCell id="PIJa-xAXMbUZL5U9VrCR-55" value="" style="endArrow=classic;html=1;strokeWidth=1;exitX=0;exitY=0.5;exitDx=0;exitDy=0;entryX=0;entryY=0.5;entryDx=0;entryDy=0;" edge="1" parent="1" source="PIJa-xAXMbUZL5U9VrCR-21" target="PIJa-xAXMbUZL5U9VrCR-26">
          <mxGeometry width="50" height="50" relative="1" as="geometry">
            <mxPoint x="-1530" y="245" as="sourcePoint" />
            <mxPoint x="-1170" y="910" as="targetPoint" />
            <Array as="points">
              <mxPoint x="-1600" y="415" />
              <mxPoint x="-1600" y="908" />
            </Array>
          </mxGeometry>
        </mxCell>
        <mxCell id="PIJa-xAXMbUZL5U9VrCR-56" value="" style="endArrow=classic;html=1;strokeWidth=1;exitX=0;exitY=0.5;exitDx=0;exitDy=0;entryX=0;entryY=0.5;entryDx=0;entryDy=0;" edge="1" parent="1" source="PIJa-xAXMbUZL5U9VrCR-23" target="PIJa-xAXMbUZL5U9VrCR-26">
          <mxGeometry width="50" height="50" relative="1" as="geometry">
            <mxPoint x="-1530" y="425.0000000000002" as="sourcePoint" />
            <mxPoint x="-1159" y="918.25" as="targetPoint" />
            <Array as="points">
              <mxPoint x="-1600" y="595" />
              <mxPoint x="-1600" y="908" />
            </Array>
          </mxGeometry>
        </mxCell>
        <mxCell id="PIJa-xAXMbUZL5U9VrCR-57" value="" style="endArrow=classic;html=1;strokeWidth=1;exitX=0;exitY=0.5;exitDx=0;exitDy=0;entryX=0;entryY=0.5;entryDx=0;entryDy=0;" edge="1" parent="1" source="PIJa-xAXMbUZL5U9VrCR-25" target="PIJa-xAXMbUZL5U9VrCR-26">
          <mxGeometry width="50" height="50" relative="1" as="geometry">
            <mxPoint x="-1530.0000000000002" y="605" as="sourcePoint" />
            <mxPoint x="-1159" y="918.25" as="targetPoint" />
            <Array as="points">
              <mxPoint x="-1600" y="775" />
              <mxPoint x="-1600" y="908" />
            </Array>
          </mxGeometry>
        </mxCell>
      </root>
    </mxGraphModel>
  </diagram>
</mxfile>
